<svg xmlns="http://www.w3.org/2000/svg" width="100%" preserveAspectRatio="xMinYMin meet"
	viewBox="0 0 90 61"
	fill="none">
	<path fill-rule="evenodd" clip-rule="evenodd"
		d="M88.7834 2.85362C89.2426 3.92681 89.2574 5.13783 88.8245 6.22191C88.3916 7.30599 87.5464 8.17363 86.4743 8.63513L60.6338 19.7105C58.4756 20.6355 56.1417 21.0787 53.7947 21.0097C51.4477 20.9407 49.1439 20.3612 47.0437 19.3109L34.4172 13.0006C33.2748 12.4287 32.0029 12.1649 30.7273 12.235C29.4516 12.3051 28.2163 12.7066 27.1434 13.4002L7.81291 25.915C6.83119 26.5501 5.63743 26.7691 4.49423 26.5239C3.35104 26.2786 2.35206 25.5896 1.71706 24.6077C1.08206 23.6258 0.863055 22.4324 1.10822 21.289C1.35339 20.1457 2.04264 19.147 3.02436 18.5119L22.3548 6.0029C24.7154 4.47615 27.4334 3.59223 30.2403 3.43764C33.0472 3.28305 35.8458 3.86329 38.3597 5.12157L50.9862 11.426C51.9405 11.9031 52.9873 12.1665 54.0537 12.1979C55.1201 12.2294 56.1806 12.0282 57.1614 11.6081L83.0019 0.538666C84.0756 0.0797107 85.2876 0.0657679 86.3716 0.499888C87.4556 0.934009 88.3231 1.78031 88.7834 2.85362ZM4.43398 51.6261C3.26527 51.6261 2.14442 52.0903 1.31802 52.9168C0.491613 53.7434 0.0273438 54.8639 0.0273438 56.0328C0.0273438 57.2017 0.491613 58.3222 1.31802 59.1487C2.14442 59.9753 3.26527 60.4394 4.43398 60.4394H83.7534C84.9221 60.4394 86.043 59.9753 86.8694 59.1487C87.6958 58.3222 88.1601 57.2017 88.1601 56.0328C88.1601 54.8639 87.6958 53.7434 86.8694 52.9168C86.043 52.0903 84.9221 51.6261 83.7534 51.6261H4.43398Z"
		fill="rgb(213, 216, 220)" />
</svg>
