<svg xmlns="http://www.w3.org/2000/svg" width="100%" preserveAspectRatio="xMinYMin meet"
	viewBox="0 0 79 67"
	fill="none">
	<path fill-rule="evenodd" clip-rule="evenodd"
		d="M77.282 1.39001C77.9378 2.17747 78.2541 3.19313 78.1613 4.21372C78.0686 5.23431 77.5743 6.17628 76.7872 6.83257L57.8516 22.6139C56.0535 24.1128 53.9122 25.143 51.6188 25.6125C49.3255 26.082 46.9515 25.9761 44.7091 25.3043L29.9224 20.8719C28.8422 20.5476 27.6957 20.5126 26.5977 20.7704C25.4997 21.0282 24.4886 21.5697 23.6655 22.3408L7.37908 37.6068C7.01052 37.9628 6.57487 38.2419 6.09744 38.428C5.62002 38.6141 5.11037 38.7034 4.59811 38.6908C4.08586 38.6781 3.58123 38.5637 3.11358 38.3543C2.64594 38.1448 2.2246 37.8445 1.87407 37.4708C1.52354 37.097 1.25083 36.6573 1.07178 36.1772C0.892734 35.6971 0.810931 35.1861 0.831129 34.6741C0.851328 34.1621 0.973124 33.6592 1.18943 33.1947C1.40575 32.7302 1.71225 32.3133 2.09113 31.9683L18.3776 16.6972C20.188 14.9997 22.4123 13.8073 24.8282 13.2393C27.244 12.6713 29.7667 12.7476 32.1438 13.4605L46.9253 17.8929C48.9972 18.5166 51.2391 18.0579 52.9038 16.6766L71.8394 0.895229C72.6269 0.239396 73.6426 -0.0768953 74.6631 0.0158854C75.6837 0.108666 76.6257 0.602925 77.282 1.39001ZM77.8644 33.2671C78.2672 34.2084 78.2802 35.271 77.9005 36.2218C77.5207 37.1726 76.7793 37.9339 75.8389 38.3386L53.1719 48.0538C51.2787 48.8651 49.2314 49.254 47.1727 49.1935C45.1139 49.1329 43.093 48.6244 41.2508 47.7033L30.175 42.168C29.1728 41.6664 28.0571 41.4349 26.9382 41.4964C25.8192 41.5578 24.7356 41.9101 23.7944 42.5185L6.83791 53.4964C5.97676 54.0534 4.9296 54.2455 3.92681 54.0304C2.92401 53.8154 2.04771 53.2108 1.4907 52.3496C0.933683 51.4885 0.741573 50.4413 0.95663 49.4385C1.17169 48.4357 1.7763 47.5594 2.63745 47.0024L19.5939 36.0297C21.6646 34.6906 24.0488 33.915 26.511 33.7794C28.9731 33.6439 31.4281 34.153 33.6333 35.2566L44.7091 40.7867C45.5462 41.2052 46.4644 41.4363 47.3999 41.4639C48.3353 41.4915 49.2656 41.3149 50.1259 40.9465L72.7929 31.2365C73.7348 30.834 74.7979 30.8217 75.7488 31.2025C76.6997 31.5832 77.4606 32.3258 77.8644 33.2671ZM4.73511 59.2688C3.70992 59.2688 2.72673 59.676 2.00181 60.401C1.2769 61.1259 0.869649 62.1091 0.869649 63.1342C0.869649 64.1594 1.2769 65.1426 2.00181 65.8675C2.72673 66.5924 3.70992 66.9997 4.73511 66.9997H74.3133C75.3385 66.9997 76.3217 66.5924 77.0466 65.8675C77.7715 65.1426 78.1788 64.1594 78.1788 63.1342C78.1788 62.1091 77.7715 61.1259 77.0466 60.401C76.3217 59.676 75.3385 59.2688 74.3133 59.2688H4.73511Z"
		fill="rgb(30, 30, 30)" />
</svg>
