<svg xmlns="http://www.w3.org/2000/svg" width="100%" preserveAspectRatio="xMinYMin meet"
	viewBox="0 0 66 66" fill="none">
	<path
		d="M8.25 22V16.5C8.25 15.0413 8.82946 13.6424 9.86091 12.6109C10.8924 11.5795 12.2913 11 13.75 11H52.25C53.7087 11 55.1076 11.5795 56.1391 12.6109C57.1705 13.6424 57.75 15.0413 57.75 16.5V22M8.25 22V38.5M8.25 22H24.75M57.75 22V38.5M57.75 22H24.75M8.25 38.5V49.5C8.25 50.9587 8.82946 52.3576 9.86091 53.3891C10.8924 54.4205 12.2913 55 13.75 55H24.75M8.25 38.5H24.75M24.75 22V38.5M57.75 38.5V49.5C57.75 50.9587 57.1705 52.3576 56.1391 53.3891C55.1076 54.4205 53.7087 55 52.25 55H24.75M57.75 38.5H24.75M24.75 55V38.5M41.25 22V55"
		stroke="rgb(30, 30, 30)" stroke-width="5.5" stroke-linecap="round" stroke-linejoin="round" />
	<path
		d="M8.25 16.5C8.25 15.0413 8.82946 13.6424 9.86091 12.6109C10.8924 11.5795 12.2913 11 13.75 11H52.25C53.7087 11 55.1076 11.5795 56.1391 12.6109C57.1705 13.6424 57.75 15.0413 57.75 16.5V22H8.25V16.5Z"
		fill="rgb(30, 30, 30)" />
</svg>
