<svg width="100%" preserveAspectRatio="xMinYMin meet" viewBox="0 0 90 70" fill="none"
	xmlns="http://www.w3.org/2000/svg">
	<path
		d="M89.5597 49.9218C89.9858 48.8548 89.9713 47.6629 89.5193 46.6067C89.0662 45.5503 88.2125 44.7173 87.1455 44.2901C86.0786 43.8628 84.8858 43.8765 83.829 44.3282L58.3961 55.2231C57.4309 55.6365 56.3871 55.8345 55.3375 55.8036C54.2879 55.7726 53.2576 55.5134 52.3184 55.0438L39.8911 48.8388C37.4169 47.6004 34.6624 47.0293 31.8998 47.1815C29.1372 47.3336 26.4621 48.2036 24.1387 49.7063L5.11325 62.0179C4.14702 62.643 3.46864 63.6259 3.22734 64.7512C2.98604 65.8766 3.20159 67.0512 3.82657 68.0176C4.45155 68.9839 5.43477 69.6621 6.55993 69.9035C7.68509 70.1448 8.86002 69.9293 9.82625 69.3042L28.8517 56.9868C29.9078 56.3042 31.1236 55.909 32.3791 55.84C33.6346 55.7711 34.8864 56.0307 36.0108 56.5936L48.4381 62.8043C50.5051 63.838 52.7726 64.4084 55.0826 64.4763C57.3926 64.5442 59.6896 64.108 61.8138 63.1976L87.2466 52.297C88.3018 51.8427 89.1337 50.9888 89.5597 49.9218Z"
		fill="rgb(213, 216, 220)" />
	<path
		d="M3.13086 38.9192C3.13086 36.2353 4.19706 33.6612 6.09492 31.7634C7.99277 29.8655 10.5668 28.7993 13.2508 28.7993H33.4907C36.1746 28.7993 38.7487 29.8655 40.6465 31.7634C42.5444 33.6612 43.6106 36.2353 43.6106 38.9192"
		stroke="rgb(213, 216, 220)" stroke-width="5.78282" stroke-linejoin="round" />
	<path
		d="M23.3712 18.6794C27.563 18.6794 30.9611 15.2813 30.9611 11.0895C30.9611 6.89765 27.563 3.49951 23.3712 3.49951C19.1794 3.49951 15.7812 6.89765 15.7812 11.0895C15.7812 15.2813 19.1794 18.6794 23.3712 18.6794Z"
		stroke="rgb(213, 216, 220)" stroke-width="5.78282" />
</svg>
